<svg width="36" height="36" viewBox="0 0 36 36" fill="none" xmlns="http://www.w3.org/2000/svg">
<g clip-path="url(#clip0_1_144)">
<g clip-path="url(#clip1_1_144)">
<path d="M14.971 3.06348C14.8225 2.12552 14.0342 1.45505 13.1276 1.39686C13.0505 1.39208 12.9756 1.36927 12.9091 1.33029C12.8426 1.29131 12.7864 1.23726 12.7451 1.17255C12.3537 0.43923 11.5321 0.0114526 10.6684 0.148262C10.2591 0.213474 9.87984 0.40265 9.58259 0.689865C9.28534 0.977079 9.08464 1.34828 9.00798 1.75258C8.98513 1.91051 8.87141 2.02349 8.72517 2.08226C7.86922 2.41963 7.34027 3.31058 7.48883 4.24855C7.63738 5.18651 8.42561 5.85698 9.33224 5.91517C9.48949 5.92588 9.63439 6.00976 9.71476 6.13947C10.1043 6.86122 10.9259 7.289 11.7896 7.15219C12.1989 7.08698 12.5782 6.8978 12.8754 6.61059C13.1727 6.32337 13.3734 5.95217 13.45 5.54787C13.4729 5.38994 13.5964 5.26353 13.7445 5.21634C14.5771 4.88267 15.1177 3.98987 14.971 3.06348Z" fill="#F9C23C"/>
<path d="M13.9985 3.48104C14.3221 3.11311 14.7656 2.86971 15.2513 2.79357C16.1501 2.65121 17.0104 3.0966 17.4171 3.85124C17.5011 4.00411 17.646 4.08799 17.8149 4.09685C18.7818 4.15738 19.5988 4.85889 19.7547 5.84317C19.9106 6.82746 19.3503 7.74712 18.4495 8.10346C18.2916 8.16408 18.1815 8.30021 18.147 8.45999C17.9934 9.30337 17.3129 9.9928 16.4141 10.1352C16.0643 10.1909 15.7063 10.1575 15.3735 10.0383C15.0407 9.91915 14.744 9.71797 14.5113 9.45366C14.2178 9.7316 13.8459 9.91395 13.4454 9.97622C12.5816 10.113 11.7601 9.68526 11.3705 8.96351C11.3292 8.8988 11.273 8.84475 11.2065 8.80577C11.14 8.76679 11.0651 8.74399 10.988 8.73921C10.8766 8.73228 10.7659 8.71605 10.6573 8.6907C10.4154 9.05377 10.0673 9.33471 9.65998 9.49558C9.50207 9.5562 9.39201 9.69234 9.35749 9.85212C9.20389 10.6955 8.52336 11.3849 7.62457 11.5273C6.72577 11.6696 5.86551 11.2242 5.45881 10.4696C5.42174 10.3963 5.36499 10.3346 5.2948 10.2912C5.22461 10.2479 5.14369 10.2246 5.06094 10.224C4.58668 10.1939 4.1373 10.0044 3.78682 9.68659C3.43634 9.36882 3.20567 8.94178 3.13282 8.47582C2.97693 7.49154 3.53723 6.57188 4.42636 6.21739C4.58428 6.15677 4.70784 6.03036 4.72886 5.86085C4.89412 5.01563 5.56298 4.32805 6.47345 4.18384C7.37224 4.04149 8.23251 4.48688 8.6392 5.24151C8.72324 5.39439 8.86815 5.47827 9.03707 5.48712C9.20365 5.49635 9.36635 5.52637 9.51976 5.5733C9.7375 5.28597 10.0291 5.05699 10.3711 4.91973C10.5192 4.87253 10.6427 4.74613 10.6656 4.5882C10.7319 4.23863 10.8912 3.9128 11.1269 3.64447C11.3626 3.37615 11.6662 3.1751 12.0062 3.06216C12.3462 2.94922 12.7102 2.9285 13.0605 3.00215C13.4108 3.07581 13.7347 3.24115 13.9985 3.48104Z" fill="#FCD53F"/>
<path d="M15.1258 7.063C15.8892 6.94209 16.6265 7.24552 17.0797 7.80286C17.2288 7.50574 17.4473 7.2482 17.7171 7.05183C17.9868 6.85546 18.2998 6.72596 18.63 6.67418C19.5288 6.53182 20.389 6.97722 20.7957 7.73185C20.8798 7.88472 21.0247 7.96861 21.1936 7.97746C22.1604 8.038 22.9775 8.7395 23.1334 9.72379C23.2875 10.6965 22.729 11.6277 21.8282 11.9841C21.6703 12.0447 21.5602 12.1808 21.5257 12.3406C21.3721 13.184 20.6916 13.8734 19.7928 14.0158C19.0282 14.1369 18.2921 13.8332 17.8389 13.2759C17.6898 13.573 17.4713 13.8306 17.2015 14.0269C16.9318 14.2233 16.6188 14.3528 16.2886 14.4046C15.8787 14.4704 15.4586 14.4136 15.082 14.2413C14.7054 14.069 14.3894 13.7891 14.1743 13.4373C13.9603 13.597 13.7115 13.7183 13.4389 13.7876C12.5646 14.0092 11.6956 13.6601 11.2182 12.9879C11.1182 13.3006 10.945 13.5855 10.7129 13.8192C10.4808 14.053 10.1963 14.2291 9.88273 14.3329C9.56917 14.4368 9.23548 14.4655 8.90896 14.4168C8.58244 14.368 8.27239 14.2432 8.0042 14.0525C7.89536 14.1208 7.78038 14.1805 7.65755 14.2285C7.49963 14.2891 7.38957 14.4252 7.35505 14.585C7.20146 15.4284 6.52093 16.1178 5.62213 16.2602C4.72334 16.4025 3.86307 15.9571 3.45638 15.2025C3.4178 15.1304 3.36069 15.0697 3.29083 15.0266C3.22097 14.9834 3.14083 14.9594 3.05851 14.9569C2.58214 14.9298 2.12982 14.7419 1.77656 14.4243C1.42329 14.1068 1.1903 13.6786 1.11623 13.211C1.04215 12.7433 1.13144 12.2641 1.36929 11.8529C1.60714 11.4418 1.97925 11.1233 2.42393 10.9503C2.58184 10.8897 2.6919 10.7535 2.72642 10.5937C2.88002 9.75037 3.56054 9.06094 4.45934 8.91859C5.36981 8.77438 6.2184 9.22162 6.6251 9.97626C6.70914 10.1291 6.85404 10.213 7.02296 10.2219C7.42659 10.247 7.80488 10.3841 8.11885 10.6062C8.16691 10.5772 8.21749 10.549 8.26726 10.5233C8.47804 10.4187 8.62562 10.2173 8.67248 9.98435C8.8089 9.10809 9.48576 8.3955 10.4079 8.24944C10.8469 8.17953 11.2967 8.24988 11.6921 8.45033C12.0876 8.65078 12.4083 8.97096 12.6079 9.36461C12.7544 9.25475 12.9159 9.16388 13.0904 9.09469C13.2483 9.03407 13.3584 8.89794 13.3929 8.73816C13.5465 7.89478 14.227 7.20535 15.1258 7.063Z" fill="#FFF478"/>
<path d="M9.41467 14.7455C9.33874 14.3658 9.34091 13.9746 9.42106 13.5954C9.50121 13.2162 9.65767 12.8568 9.88107 12.5387C10.1045 12.2207 10.3902 11.9505 10.7211 11.7445C11.052 11.5384 11.4213 11.4007 11.8068 11.3397C13.4293 11.0827 14.9377 12.2207 15.1343 13.8396L19.4125 12.521C19.325 11.2885 20.1919 10.1897 21.4292 9.99369C22.8767 9.76444 24.1891 10.8742 24.1813 12.3355L24.1668 29.8464C24.1649 30.6658 23.5581 31.3673 22.741 31.4967L20.9084 31.7869L18.4928 27.165L17.3231 32.3429L13.0509 33.0196L10.9438 29.4314L9.51587 33.5913L7.68326 33.8816C6.86617 34.011 6.07228 33.5313 5.81733 32.7527L0.392355 16.1032C-0.0550155 14.7141 0.850309 13.2531 2.29772 13.0238C3.53503 12.8279 4.71078 13.6031 4.98506 14.8061L9.41467 14.7455Z" fill="#F8312F"/>
<path d="M9.45743 33.6006L4.9658 14.9872C4.66084 13.7416 5.49595 12.5173 6.7566 12.3176C7.92387 12.1327 9.02592 12.8959 9.25602 14.0465L13.0526 33.0312L9.45743 33.6006ZM17.3248 32.3545L15.0573 13.1277C15.0009 12.5511 15.1777 11.9752 15.5487 11.5269C15.9198 11.0786 16.4547 10.7944 17.0359 10.737C17.6171 10.6796 18.1968 10.8536 18.6477 11.2207C19.0985 11.5879 19.3835 12.1181 19.4399 12.6947L20.92 31.7851L17.3248 32.3545Z" fill="#F4F4F4"/>
</g>
<path d="M15.1434 33.2643L32.2876 35.9797L35.9081 13.1205L13.049 9.5L9.42841 32.3592L15.1434 33.2643ZM31.4682 14.0334L34.1344 14.4557L33.8223 16.4263L31.1561 16.004L31.4682 14.0334ZM30.9064 17.5805L33.5726 18.0028L33.2605 19.9734L30.5943 19.5511L30.9064 17.5805ZM30.3446 21.1276L33.0108 21.5499L32.6987 23.5205L30.0324 23.0982L30.3446 21.1276ZM29.7828 24.6747L32.449 25.097L32.1369 27.0676L29.4706 26.6453L29.7828 24.6747ZM29.2209 28.2218L31.8872 28.6441L31.5751 30.6147L28.9088 30.1924L29.2209 28.2218ZM28.6591 31.7689L31.3254 32.1912L31.0133 34.1618L28.347 33.7396L28.6591 31.7689ZM17.3906 19.0759L18.5142 11.9817L29.9435 13.7919L28.5077 22.8567L17.0785 21.0465L17.3906 19.0759ZM15.7052 29.7172L16.8288 22.623L28.258 24.4332L26.8223 33.4981L15.3931 31.6878L15.7052 29.7172ZM14.3233 11.3179L16.9902 11.7403L16.6781 13.7109L14.0111 13.2885L14.3233 11.3179ZM13.7614 14.865L16.4284 15.2874L16.1163 17.258L13.4493 16.8356L13.7614 14.865ZM13.1996 18.4121L15.8666 18.8345L15.5545 20.8051L12.8875 20.3827L13.1996 18.4121ZM12.6378 21.9592L15.3048 22.3816L14.9927 24.3522L12.3257 23.9298L12.6378 21.9592ZM12.076 25.5063L14.743 25.9287L14.4309 27.8994L11.7639 27.4769L12.076 25.5063ZM11.5142 29.0534L14.1812 29.4759L13.8691 31.4465L11.2021 31.0241L11.5142 29.0534Z" fill="black"/>
<path d="M31.4682 14.0334L34.1344 14.4557L33.8223 16.4263L31.1561 16.004L31.4682 14.0334ZM30.9064 17.5805L33.5726 18.0028L33.2605 19.9734L30.5942 19.5511L30.9064 17.5805ZM30.3446 21.1276L33.0108 21.5499L32.6987 23.5205L30.0324 23.0982L30.3446 21.1276ZM29.7827 24.6747L32.449 25.097L32.1369 27.0676L29.4706 26.6453L29.7827 24.6747ZM29.2209 28.2218L31.8872 28.6441L31.5751 30.6147L28.9088 30.1924L29.2209 28.2218ZM28.6591 31.7689L31.3254 32.1912L31.0133 34.1618L28.347 33.7396L28.6591 31.7689ZM17.3906 19.0759L18.5142 11.9817L29.9435 13.7919L28.5077 22.8567L17.0785 21.0465L17.3906 19.0759ZM15.7052 29.7172L16.8288 22.623L28.258 24.4332L26.8223 33.4981L15.3931 31.6878L15.7052 29.7172ZM14.3232 11.3179L16.9902 11.7403L16.6781 13.7109L14.0111 13.2885L14.3232 11.3179ZM13.7614 14.865L16.4284 15.2874L16.1163 17.258L13.4493 16.8356L13.7614 14.865ZM13.1996 18.4121L15.8666 18.8345L15.5545 20.8051L12.8875 20.3827L13.1996 18.4121ZM12.6378 21.9592L15.3048 22.3816L14.9927 24.3522L12.3257 23.9298L12.6378 21.9592ZM12.076 25.5063L14.743 25.9287L14.4309 27.8994L11.7639 27.4769L12.076 25.5063ZM11.5142 29.0534L14.1812 29.4759L13.8691 31.4465L11.2021 31.0241L11.5142 29.0534Z" fill="#196DDA"/>
</g>
<defs>
<clipPath id="clip0_1_144">
<rect width="36" height="36" fill="white"/>
</clipPath>
<clipPath id="clip1_1_144">
<rect width="25" height="33" fill="white" transform="translate(-2.02429 2.15857) rotate(-9)"/>
</clipPath>
</defs>
</svg>
