<svg fill="#FEFFFF" viewBox="0 0 48 48" xmlns="http://www.w3.org/2000/svg">
  <path d="M2 24C2 11.8494 11.8494 2 24 2C36.1506 2 46 11.8494 46 24C46 36.1506 36.1506 46 24 46C11.8494 46 2 36.1506 2 24ZM24 6C14.0586 6 6 14.0586 6 24C6 33.9414 14.0586 42 24 42C33.9414 42 42 33.9414 42 24C42 14.0586 33.9414 6 24 6Z" />
  <path d="M20.4645 11.4645C21.4021 10.5268 22.6739 10 24 10C25.3261 10 26.5979 10.5268 27.5355 11.4645C28.4732 12.4021 29 13.6739 29 15C29 16.3261 28.4732 17.5979 27.5355 18.5355C26.5979 19.4732 25.3261 20 24 20C22.6739 20 21.4021 19.4732 20.4645 18.5355C19.5268 17.5979 19 16.3261 19 15C19 13.6739 19.5268 12.4021 20.4645 11.4645ZM24 14C23.7348 14 23.4804 14.1054 23.2929 14.2929C23.1054 14.4804 23 14.7348 23 15C23 15.2652 23.1054 15.5196 23.2929 15.7071C23.4804 15.8946 23.7348 16 24 16C24.2652 16 24.5196 15.8946 24.7071 15.7071C24.8946 15.5196 25 15.2652 25 15C25 14.7348 24.8946 14.4804 24.7071 14.2929C24.5196 14.1054 24.2652 14 24 14ZM11.4645 20.4645C12.4021 19.5268 13.6739 19 15 19C16.3261 19 17.5979 19.5268 18.5355 20.4645C19.4732 21.4021 20 22.6739 20 24C20 25.3261 19.4732 26.5979 18.5355 27.5355C17.5979 28.4732 16.3261 29 15 29C13.6739 29 12.4021 28.4732 11.4645 27.5355C10.5268 26.5979 10 25.3261 10 24C10 22.6739 10.5268 21.4021 11.4645 20.4645ZM15 23C14.7348 23 14.4804 23.1054 14.2929 23.2929C14.1054 23.4804 14 23.7348 14 24C14 24.2652 14.1054 24.5196 14.2929 24.7071C14.4804 24.8946 14.7348 25 15 25C15.2652 25 15.5196 24.8946 15.7071 24.7071C15.8946 24.5196 16 24.2652 16 24C16 23.7348 15.8946 23.4804 15.7071 23.2929C15.5196 23.1054 15.2652 23 15 23ZM29.4645 20.4645C30.4021 19.5268 31.6739 19 33 19C34.3261 19 35.5979 19.5268 36.5355 20.4645C37.4732 21.4021 38 22.6739 38 24C38 25.3261 37.4732 26.5979 36.5355 27.5355C35.5979 28.4732 34.3261 29 33 29C31.6739 29 30.4021 28.4732 29.4645 27.5355C28.5268 26.5979 28 25.3261 28 24C28 22.6739 28.5268 21.4021 29.4645 20.4645ZM33 23C32.7348 23 32.4804 23.1054 32.2929 23.2929C32.1054 23.4804 32 23.7348 32 24C32 24.2652 32.1054 24.5196 32.2929 24.7071C32.4804 24.8946 32.7348 25 33 25C33.2652 25 33.5196 24.8946 33.7071 24.7071C33.8946 24.5196 34 24.2652 34 24C34 23.7348 33.8946 23.4804 33.7071 23.2929C33.5196 23.1054 33.2652 23 33 23ZM20.4645 29.4645C21.4021 28.5268 22.6739 28 24 28C25.3261 28 26.5979 28.5268 27.5355 29.4645C28.4732 30.4021 29 31.6739 29 33C29 34.3261 28.4732 35.5979 27.5355 36.5355C26.5979 37.4732 25.3261 38 24 38C22.6739 38 21.4021 37.4732 20.4645 36.5355C19.5268 35.5979 19 34.3261 19 33C19 31.6739 19.5268 30.4021 20.4645 29.4645ZM24 32C23.7348 32 23.4804 32.1054 23.2929 32.2929C23.1054 32.4804 23 32.7348 23 33C23 33.2652 23.1054 33.5196 23.2929 33.7071C23.4804 33.8946 23.7348 34 24 34C24.2652 34 24.5196 33.8946 24.7071 33.7071C24.8946 33.5196 25 33.2652 25 33C25 32.7348 24.8946 32.4804 24.7071 32.2929C24.5196 32.1054 24.2652 32 24 32Z" />
  <path d="M22 44C22 42.8954 22.8954 42 24 42H44C45.1046 42 46 42.8954 46 44C46 45.1046 45.1046 46 44 46H24C22.8954 46 22 45.1046 22 44Z" />
</svg>
